<?xml version="1.0" encoding="UTF-8" standalone="no"?>
<!DOCTYPE svg PUBLIC "-//W3C//DTD SVG 1.1//EN"
 "http://www.w3.org/Graphics/SVG/1.1/DTD/svg11.dtd">
<!-- Generated by graphviz version 2.43.0 (0)
 -->
<!-- Title: G Pages: 1 -->
<svg width="536pt" height="189pt"
 viewBox="0.00 0.00 536.00 189.00" xmlns="http://www.w3.org/2000/svg" xmlns:xlink="http://www.w3.org/1999/xlink">
<g id="graph0" class="graph" transform="scale(1 1) rotate(0) translate(4 185)">
<title>G</title>
<polygon fill="white" stroke="transparent" points="-4,4 -4,-185 532,-185 532,4 -4,4"/>
<g id="clust1" class="cluster">
<title>cluster_i</title>
<polygon fill="none" stroke="black" stroke-dasharray="1,5" points="8,-66 8,-141 104,-141 104,-66 8,-66"/>
<text text-anchor="middle" x="56" y="-125.8" font-family="Times,serif" font-size="14.00">Input</text>
</g>
<g id="clust2" class="cluster">
<title>cluster_a</title>
<polygon fill="none" stroke="black" stroke-dasharray="1,5" points="153,-66 153,-141 296,-141 296,-66 153,-66"/>
<text text-anchor="middle" x="224.5" y="-125.8" font-family="Times,serif" font-size="14.00">Internal Representation</text>
</g>
<g id="clust3" class="cluster">
<title>cluster_o</title>
<polygon fill="none" stroke="black" stroke-dasharray="1,5" points="412,-8 412,-173 520,-173 520,-8 412,-8"/>
<text text-anchor="middle" x="466" y="-157.8" font-family="Times,serif" font-size="14.00">Output</text>
</g>
<!-- MD -->
<g id="node1" class="node">
<title>MD</title>
<polygon fill="none" stroke="black" points="90,-110 16,-110 16,-74 96,-74 96,-104 90,-110"/>
<polyline fill="none" stroke="black" points="90,-110 90,-104 "/>
<polyline fill="none" stroke="black" points="96,-104 90,-104 "/>
<text text-anchor="middle" x="56" y="-88.3" font-family="Times,serif" font-size="14.00">&lt;deck&gt;.md</text>
</g>
<!-- RP -->
<g id="node2" class="node">
<title>RP</title>
<path fill="none" stroke="black" d="M253,-106.73C253,-108.53 240,-110 224,-110 208,-110 195,-108.53 195,-106.73 195,-106.73 195,-77.27 195,-77.27 195,-75.47 208,-74 224,-74 240,-74 253,-75.47 253,-77.27 253,-77.27 253,-106.73 253,-106.73"/>
<path fill="none" stroke="black" d="M253,-106.73C253,-104.92 240,-103.45 224,-103.45 208,-103.45 195,-104.92 195,-106.73"/>
<text text-anchor="middle" x="224" y="-88.3" font-family="Times,serif" font-size="14.00">Models</text>
</g>
<!-- MD&#45;&gt;RP -->
<g id="edge1" class="edge">
<title>MD&#45;&gt;RP</title>
<path fill="none" stroke="black" d="M96.34,-92C123.09,-92 158.29,-92 184.79,-92"/>
<polygon fill="black" stroke="black" points="184.85,-95.5 194.85,-92 184.85,-88.5 184.85,-95.5"/>
<text text-anchor="middle" x="128.5" y="-95.8" font-family="Times,serif" font-size="14.00">parse</text>
</g>
<!-- AnkiPkg -->
<g id="node3" class="node">
<title>AnkiPkg</title>
<polygon fill="none" stroke="black" points="504.5,-142 421.5,-142 421.5,-106 510.5,-106 510.5,-136 504.5,-142"/>
<polyline fill="none" stroke="black" points="504.5,-142 504.5,-136 "/>
<polyline fill="none" stroke="black" points="510.5,-136 504.5,-136 "/>
<text text-anchor="middle" x="466" y="-120.3" font-family="Times,serif" font-size="14.00">&lt;deck&gt;.apkg</text>
</g>
<!-- RP&#45;&gt;AnkiPkg -->
<g id="edge2" class="edge">
<title>RP&#45;&gt;AnkiPkg</title>
<path fill="none" stroke="black" d="M253,-95.73C291.67,-100.89 362.2,-110.29 411.24,-116.83"/>
<polygon fill="black" stroke="black" points="410.99,-120.33 421.36,-118.18 411.91,-113.39 410.99,-120.33"/>
<text text-anchor="middle" x="354" y="-118.8" font-family="Times,serif" font-size="14.00">generate</text>
</g>
<!-- AnkiDesktop -->
<g id="node4" class="node">
<title>AnkiDesktop</title>
<image xlink:href="Anki-icon.svg" width="32px" height="32px" preserveAspectRatio="xMinYMin meet" x="450" y="-68"/>
<text text-anchor="middle" x="466" y="-24.3" font-family="Times,serif" font-size="14.00">Anki Desktop</text>
</g>
<!-- RP&#45;&gt;AnkiDesktop -->
<g id="edge3" class="edge">
<title>RP&#45;&gt;AnkiDesktop</title>
<path fill="none" stroke="black" d="M253,-87.33C291.21,-80.96 360.52,-69.41 409.48,-61.25"/>
<polygon fill="black" stroke="black" points="410.31,-64.66 419.59,-59.57 409.16,-57.76 410.31,-64.66"/>
<text text-anchor="middle" x="354" y="-80.8" font-family="Times,serif" font-size="14.00">via Anki Connect</text>
</g>
</g>
</svg>
