<?xml version="1.0" encoding="UTF-8" standalone="no"?>
<!DOCTYPE svg PUBLIC "-//W3C//DTD SVG 1.1//EN"
 "http://www.w3.org/Graphics/SVG/1.1/DTD/svg11.dtd">
<!-- Generated by graphviz version 2.43.0 (0)
 -->
<!-- Title: G Pages: 1 -->
<svg width="545pt" height="219pt"
 viewBox="0.00 0.00 545.00 219.00" xmlns="http://www.w3.org/2000/svg" xmlns:xlink="http://www.w3.org/1999/xlink">
<g id="graph0" class="graph" transform="scale(1 1) rotate(0) translate(4 215)">
<title>G</title>
<polygon fill="white" stroke="transparent" points="-4,4 -4,-215 541,-215 541,4 -4,4"/>
<g id="clust1" class="cluster">
<title>cluster_i</title>
<polygon fill="none" stroke="black" stroke-dasharray="1,5" points="8,-90 8,-165 104,-165 104,-90 8,-90"/>
<text text-anchor="middle" x="56" y="-149.8" font-family="Times,serif" font-size="14.00">Input</text>
</g>
<g id="clust2" class="cluster">
<title>cluster_a</title>
<polygon fill="none" stroke="black" stroke-dasharray="1,5" points="153,-90 153,-165 296,-165 296,-90 153,-90"/>
<text text-anchor="middle" x="224.5" y="-149.8" font-family="Times,serif" font-size="14.00">Internal Representation</text>
</g>
<g id="clust3" class="cluster">
<title>cluster_o</title>
<polygon fill="none" stroke="black" stroke-dasharray="1,5" points="412,-8 412,-203 529,-203 529,-8 412,-8"/>
<text text-anchor="middle" x="470.5" y="-187.8" font-family="Times,serif" font-size="14.00">Output</text>
</g>
<!-- MD -->
<g id="node1" class="node">
<title>MD</title>
<polygon fill="none" stroke="black" points="90,-134 16,-134 16,-98 96,-98 96,-128 90,-134"/>
<polyline fill="none" stroke="black" points="90,-134 90,-128 "/>
<polyline fill="none" stroke="black" points="96,-128 90,-128 "/>
<text text-anchor="middle" x="56" y="-112.3" font-family="Times,serif" font-size="14.00">&lt;deck&gt;.md</text>
</g>
<!-- RP -->
<g id="node2" class="node">
<title>RP</title>
<path fill="none" stroke="black" d="M253,-130.73C253,-132.53 240,-134 224,-134 208,-134 195,-132.53 195,-130.73 195,-130.73 195,-101.27 195,-101.27 195,-99.47 208,-98 224,-98 240,-98 253,-99.47 253,-101.27 253,-101.27 253,-130.73 253,-130.73"/>
<path fill="none" stroke="black" d="M253,-130.73C253,-128.92 240,-127.45 224,-127.45 208,-127.45 195,-128.92 195,-130.73"/>
<text text-anchor="middle" x="224" y="-112.3" font-family="Times,serif" font-size="14.00">Models</text>
</g>
<!-- MD&#45;&gt;RP -->
<g id="edge1" class="edge">
<title>MD&#45;&gt;RP</title>
<path fill="none" stroke="black" d="M96.34,-116C123.09,-116 158.29,-116 184.79,-116"/>
<polygon fill="black" stroke="black" points="184.85,-119.5 194.85,-116 184.85,-112.5 184.85,-119.5"/>
<text text-anchor="middle" x="128.5" y="-119.8" font-family="Times,serif" font-size="14.00">parse</text>
</g>
<!-- AnkiPkg -->
<g id="node3" class="node">
<title>AnkiPkg</title>
<polygon fill="none" stroke="black" points="509,-172 426,-172 426,-136 515,-136 515,-166 509,-172"/>
<polyline fill="none" stroke="black" points="509,-172 509,-166 "/>
<polyline fill="none" stroke="black" points="515,-166 509,-166 "/>
<text text-anchor="middle" x="470.5" y="-150.3" font-family="Times,serif" font-size="14.00">&lt;deck&gt;.apkg</text>
</g>
<!-- RP&#45;&gt;AnkiPkg -->
<g id="edge2" class="edge">
<title>RP&#45;&gt;AnkiPkg</title>
<path fill="none" stroke="black" d="M253.05,-120.36C292.59,-126.51 365.51,-137.84 415.71,-145.64"/>
<polygon fill="black" stroke="black" points="415.32,-149.12 425.74,-147.2 416.4,-142.2 415.32,-149.12"/>
<text text-anchor="middle" x="354" y="-145.8" font-family="Times,serif" font-size="14.00">generate</text>
</g>
<!-- AnkiDesktop -->
<g id="node4" class="node">
<title>AnkiDesktop</title>
<image xlink:href="Anki-icon.png" width="101px" height="101px" preserveAspectRatio="xMinYMin meet" x="420" y="-117.5"/>
</g>
<!-- RP&#45;&gt;AnkiDesktop -->
<g id="edge3" class="edge">
<title>RP&#45;&gt;AnkiDesktop</title>
<path fill="none" stroke="black" d="M253.05,-110.38C291.07,-102.76 359.94,-88.96 409.8,-78.96"/>
<polygon fill="black" stroke="black" points="410.7,-82.35 419.82,-76.96 409.33,-75.49 410.7,-82.35"/>
<text text-anchor="middle" x="354" y="-101.8" font-family="Times,serif" font-size="14.00">via Anki Connect</text>
</g>
</g>
</svg>
