<?xml version="1.0" encoding="UTF-8" standalone="no"?>
<!DOCTYPE svg PUBLIC "-//W3C//DTD SVG 1.1//EN"
 "http://www.w3.org/Graphics/SVG/1.1/DTD/svg11.dtd">
<!-- Generated by graphviz version 2.43.0 (0)
 -->
<!-- Title: G Pages: 1 -->
<svg width="474pt" height="165pt"
 viewBox="0.00 0.00 474.00 165.00" xmlns="http://www.w3.org/2000/svg" xmlns:xlink="http://www.w3.org/1999/xlink">
<g id="graph0" class="graph" transform="scale(1 1) rotate(0) translate(4 161)">
<title>G</title>
<polygon fill="white" stroke="transparent" points="-4,4 -4,-161 470,-161 470,4 -4,4"/>
<g id="clust1" class="cluster">
<title>cluster_i</title>
<polygon fill="none" stroke="black" stroke-dasharray="1,5" points="8,-41 8,-116 104,-116 104,-41 8,-41"/>
<text text-anchor="middle" x="56" y="-100.8" font-family="Times,serif" font-size="14.00">Input</text>
</g>
<g id="clust2" class="cluster">
<title>cluster_a</title>
<polygon fill="none" stroke="black" stroke-dasharray="1,5" points="153,-41 153,-116 296,-116 296,-41 153,-41"/>
<text text-anchor="middle" x="224.5" y="-100.8" font-family="Times,serif" font-size="14.00">Internal Representation</text>
</g>
<g id="clust3" class="cluster">
<title>cluster_o</title>
<polygon fill="none" stroke="black" stroke-dasharray="1,5" points="341,-8 341,-149 458,-149 458,-8 341,-8"/>
<text text-anchor="middle" x="399.5" y="-133.8" font-family="Times,serif" font-size="14.00">Target</text>
</g>
<!-- MD -->
<g id="node1" class="node">
<title>MD</title>
<polygon fill="none" stroke="black" points="90,-85 16,-85 16,-49 96,-49 96,-79 90,-85"/>
<polyline fill="none" stroke="black" points="90,-85 90,-79 "/>
<polyline fill="none" stroke="black" points="96,-79 90,-79 "/>
<text text-anchor="middle" x="56" y="-63.3" font-family="Times,serif" font-size="14.00">&lt;deck&gt;.md</text>
</g>
<!-- RP -->
<g id="node2" class="node">
<title>RP</title>
<path fill="none" stroke="black" d="M253,-81.73C253,-83.53 240,-85 224,-85 208,-85 195,-83.53 195,-81.73 195,-81.73 195,-52.27 195,-52.27 195,-50.47 208,-49 224,-49 240,-49 253,-50.47 253,-52.27 253,-52.27 253,-81.73 253,-81.73"/>
<path fill="none" stroke="black" d="M253,-81.73C253,-79.92 240,-78.45 224,-78.45 208,-78.45 195,-79.92 195,-81.73"/>
<text text-anchor="middle" x="224" y="-63.3" font-family="Times,serif" font-size="14.00">Models</text>
</g>
<!-- MD&#45;&gt;RP -->
<g id="edge1" class="edge">
<title>MD&#45;&gt;RP</title>
<path fill="none" stroke="black" d="M96.34,-67C123.09,-67 158.29,-67 184.79,-67"/>
<polygon fill="black" stroke="black" points="184.85,-70.5 194.85,-67 184.85,-63.5 184.85,-70.5"/>
<text text-anchor="middle" x="128.5" y="-70.8" font-family="Times,serif" font-size="14.00">parse</text>
</g>
<!-- AnkiDesktop -->
<g id="node3" class="node">
<title>AnkiDesktop</title>
<image xlink:href="Anki-icon.png" width="101px" height="101px" preserveAspectRatio="xMinYMin meet" x="349" y="-117.5"/>
</g>
<!-- RP&#45;&gt;AnkiDesktop -->
<g id="edge2" class="edge">
<title>RP&#45;&gt;AnkiDesktop</title>
<path fill="none" stroke="black" d="M253.26,-67C276.37,-67 309.84,-67 338.82,-67"/>
<polygon fill="black" stroke="black" points="338.86,-70.5 348.86,-67 338.86,-63.5 338.86,-70.5"/>
<text text-anchor="middle" x="318.5" y="-70.8" font-family="Times,serif" font-size="14.00">sync</text>
</g>
</g>
</svg>
